<?xml version="1.0" standalone="no"?>
<!DOCTYPE svg PUBLIC "-//W3C//DTD SVG 20010904//EN"
 "http://www.w3.org/TR/2001/REC-SVG-20010904/DTD/svg10.dtd">
<svg version="1.0" xmlns="http://www.w3.org/2000/svg"
 width="220.000000pt" height="220.000000pt" viewBox="0 0 220.000000 220.000000"
 preserveAspectRatio="xMidYMid meet">
<metadata>
Created by potrace 1.14, written by Peter Selinger 2001-2017
</metadata>
<g transform="translate(0.000000,220.000000) scale(0.100000,-0.100000)"
fill="#000000" stroke="none">
<path d="M355 1283 c0 -850 -5 -799 82 -850 l45 -26 246 -1 247 -1 3 -148 c1
-81 4 -147 5 -147 2 0 50 46 108 103 163 161 232 188 476 192 96 1 158 6 166
14 8 6 16 9 19 6 8 -8 68 54 80 83 8 19 12 239 13 775 l1 747 -746 0 -746 0 1
-747z m1380 -48 c0 -632 -1 -686 -17 -701 -15 -15 -41 -18 -170 -19 -215 -2
-306 -33 -427 -141 l-51 -46 0 94 0 94 -285 0 c-257 0 -287 1 -302 17 -16 16
-18 66 -18 702 l-1 685 636 0 635 0 0 -685z"/>
</g>
</svg>
